<svg xmlns="http://www.w3.org/2000/svg" style="display:none">
  <symbol id="icon-settings" viewBox="0 0 24 24">
<path d="M10.4 3h3.2l.6 2.1a7.3 7.3 0 0 1 1.8.8l2-1 2.2 2.2-1 2a7.3 7.3 0 0 1 .8 1.8L22 11.6v3.2l-2.1.6a7.3 7.3 0 0 1-.8 1.8l1 2-2.2 2.2-2-1a7.3 7.3 0 0 1-1.8.8l-.6 2.1h-3.2l-.6-2.1a7.3 7.3 0 0 1-1.8-.8l-2 1-2.2-2.2 1-2a7.3 7.3 0 0 1-.8-1.8L2 14.8v-3.2l2.1-.6a7.3 7.3 0 0 1 .8-1.8l-1-2L6.1 5l2 1a7.3 7.3 0 0 1 1.8-.8L10.4 3z" fill="none" stroke="#9fd0ff" stroke-width="1.4" stroke-linejoin="round"/>
    <circle cx="12" cy="12" r="2.6" fill="none" stroke="#9fd0ff" stroke-width="1.6"/>
  </symbol>
</svg>
